<svg xmlns="http://www.w3.org/2000/svg" viewBox="0 0 24 24">
  <defs>
    <linearGradient id="g" x1="0" y1="0" x2="1" y2="1">
      <stop offset="0%" stop-color="#7FA6FF"/><stop offset="55%" stop-color="#7C6BF5"/>
      <stop offset="100%" stop-color="#A981F7"/>
    </linearGradient>
  </defs>
  <rect width="24" height="24" rx="5" fill="#080A11"/>
  <g fill="none" stroke="url(#g)" stroke-width="1.6" stroke-linecap="round">
    <path d="M12 3.4a8.6 8.6 0 0 1 8.6 8.6"/>
    <path d="M20.6 12a8.6 8.6 0 0 1-8.6 8.6" opacity=".6"/>
    <path d="M12 20.6A8.6 8.6 0 0 1 3.4 12"/>
    <path d="M3.4 12A8.6 8.6 0 0 1 12 3.4" opacity=".6"/>
    <path d="M12 7.4a4.6 4.6 0 0 1 4.6 4.6M12 16.6A4.6 4.6 0 0 1 7.4 12" opacity=".9"/>
  </g>
  <circle cx="12" cy="12" r="1.9" fill="url(#g)"/>
</svg>
